<?xml version="1.0" encoding="UTF-8" standalone="no"?>
<svg
   xmlns:dc="http://purl.org/dc/elements/1.1/"
   xmlns:cc="http://creativecommons.org/ns#"
   xmlns:rdf="http://www.w3.org/1999/02/22-rdf-syntax-ns#"
   xmlns:svg="http://www.w3.org/2000/svg"
   xmlns="http://www.w3.org/2000/svg"
   xmlns:xlink="http://www.w3.org/1999/xlink"
   xmlns:sodipodi="http://sodipodi.sourceforge.net/DTD/sodipodi-0.dtd"
   xmlns:inkscape="http://www.inkscape.org/namespaces/inkscape"
   style="height: 512px; width: 512px;"
   viewBox="0 0 512 512"
   version="1.1"
   id="svg26"
   sodipodi:docname="rally-the-troops.svg">
  <metadata
     id="metadata30">
    <rdf:RDF>
      <cc:Work
         rdf:about="">
        <dc:format>image/svg+xml</dc:format>
        <dc:type
           rdf:resource="http://purl.org/dc/dcmitype/StillImage" />
        <dc:title />
      </cc:Work>
    </rdf:RDF>
  </metadata>
  <sodipodi:namedview
     pagecolor="#ffffff"
     bordercolor="#666666"
     borderopacity="1"
     objecttolerance="10"
     gridtolerance="10"
     guidetolerance="10"
     id="namedview28"
     showgrid="false"
  <defs
     id="defs18">
    <filter
       id="shadow-1"
       height="300%"
       width="300%"
       x="-100%"
       y="-100%">
      <feFlood
         flood-color="rgba(44, 94, 36, 1)"
         result="flood"
         id="feFlood2" />
      <feComposite
         in="flood"
         in2="SourceGraphic"
         operator="atop"
         result="composite"
         id="feComposite4" />
      <feGaussianBlur
         in="composite"
         stdDeviation="5"
         result="blur"
         id="feGaussianBlur6" />
      <feOffset
         dx="0"
         dy="0"
         result="offset"
         id="feOffset8" />
      <feComposite
         in="SourceGraphic"
         in2="offset"
         operator="over"
         id="feComposite10" />
    </filter>
    <linearGradient
       x1="0"
       x2="1"
       y1="0"
       y2="1"
       id="lorc-rally-the-troops-gradient-0">
      <stop
         offset="0%"
         stop-color="#80cb94"
         stop-opacity="1"
         id="stop13" />
      <stop
         offset="100%"
         stop-color="#000000"
         stop-opacity="1"
         id="stop15" />
    </linearGradient>
    <linearGradient
       xlink:href="#lorc-rally-the-troops-gradient-0"
       id="linearGradient862"
       x1="0"
       y1="0"
       x2="431.60001"
       y2="437.79999"
       gradientUnits="userSpaceOnUse" />
  </defs>
  <rect
     fill="url(#lorc-rally-the-troops-gradient-0)"
     height="512"
     width="512"
     rx="16"
     ry="16"
     id="rect20"
     style="fill-opacity:1;fill:url(#linearGradient862)" />
  <g
     class=""
     id="g24">
    <path
       d="m 462.9,19.12 c -9.6,0 -17.2,7.59 -17.2,17.19 0,9.61 7.6,17.19 17.2,17.19 9.6,0 17.2,-7.58 17.2,-17.19 0,-9.6 -7.6,-17.19 -17.2,-17.19 z M 382.6,40.94 C 222.3,41.74 164.5,258.4 19.67,137.2 c 3.25,36.8 88.43,78.4 88.43,78.4 -26.03,20 -34.78,24.7 -71.99,25.5 104.09,86.7 338.69,-99.8 408.39,40.1 l -2.3,-38.4 -45.4,-46.5 42.7,0.6 -0.6,-10.2 -50.7,-32.2 48.4,-7.2 -0.7,-11.1 -50,-27.3 47.9,-8.8 -0.6,-10.69 -52.2,-22.75 50.5,-5.85 -0.8,-13.9 c -17.1,-4.2 -33,-6.05 -48.1,-5.97 z M 453.4,70.91 473.6,494.9 492.3,494 472.1,71 c -6.3,1.54 -12.7,1.5 -18.7,-0.1 z M 360,292.9 l -43.6,70 21.3,25 L 322,493 h 18.9 l 15.2,-102.3 28,-20.2 C 376,344.6 368,318.7 360,292.9 Z m -156.7,17.9 -28.8,69.8 20.5,20.2 2.2,92.2 h 18.7 l -2.2,-93 19.6,-19.9 z m -158.16,5 -16.4,61.9 17.65,13.2 L 61.24,493 H 80.11 L 64.89,388.3 78.11,370.7 45.18,315.8 Z m 85.96,7.4 -28.2,57.5 15.1,17 -6.7,95.3 H 130 l 6.8,-95.3 15.9,-14.2 z m 136.9,32.3 -19.5,68.4 19.4,15.2 5.8,53.9 h 18.9 l -5.9,-54.3 16.8,-21.6 c -11.9,-20.5 -23.7,-41 -35.5,-61.6 z m 143.6,0.1 -18.9,68.6 20.3,15.5 6.2,53.3 H 438 l -6.4,-55.2 16,-20.9 z"
       fill="#d1bb81"
       fill-opacity="1"
       stroke="#7e6f46"
       stroke-opacity="1"
       stroke-width="5"
       filter="url(#shadow-1)"
       id="path22" />
  </g>
  <text
     xml:space="preserve"
     style="font-size:85.3333px;line-height:1.25;font-family:sans-serif;letter-spacing:0px;word-spacing:0px;stroke-width:2;stroke-miterlimit:4;stroke-dasharray:none"
     id="text857"
     x="-31.641869"
     y="27.214314"
     transform="translate(14.646328,25.94919)"><textPath
       xlink:href="#path871"
       id="textPath873"
       style="font-style:normal;font-variant:normal;font-weight:bold;font-stretch:normal;font-size:85.3333px;font-family:Roboto;-inkscape-font-specification:'Roboto Bold';fill:#ffffff;fill-opacity:1;stroke:#000000;stroke-width:2;stroke-miterlimit:4;stroke-dasharray:none;stroke-opacity:1">R<tspan
   style="font-size:64px"
   id="tspan858">ECRUIT</tspan></textPath></text>
  <path
     style="display:none;fill:none;stroke:#000000;stroke-width:1px;stroke-linecap:butt;stroke-linejoin:miter;stroke-opacity:1"
     d="M 134.71301,240.22574 C 190.77411,230.50442 263.59643,82.255159 480.46726,134.38326"
     id="path871"
     sodipodi:nodetypes="cc" />
  <text
     xml:space="preserve"
     style="font-style:normal;font-variant:normal;font-weight:normal;font-stretch:normal;font-size:85.3333px;line-height:1.25;font-family:Roboto;-inkscape-font-specification:Roboto;letter-spacing:0px;word-spacing:0px;fill:#ffffff;fill-opacity:1;stroke:#000000;stroke-width:2;stroke-miterlimit:4;stroke-dasharray:none;stroke-opacity:1"
     id="text857-7"
     x="-65.030365"
     y="26.196249"
     transform="rotate(-2.0892085,-1686.4813,478.88234)"><textPath
       xlink:href="#path871"
       id="textPath873-4"
       style="font-style:normal;font-variant:normal;font-weight:bold;font-stretch:normal;font-size:85.3333px;font-family:Roboto;-inkscape-font-specification:'Roboto Bold';fill:#ffffff;fill-opacity:1;stroke:#000000;stroke-opacity:1">E<tspan
   style="font-size:64px"
   id="tspan854">ASY</tspan></textPath></text>
</svg>
